<svg width="1440" height="295" viewBox="0 0 1440 295" fill="none" xmlns="http://www.w3.org/2000/svg">
<path fill-rule="evenodd" clip-rule="evenodd" d="M973.046 0H981.143V45.5H985.867L991.864 85H997.338V126H1005.44V210H1040.52V229H1056.72V168H1110.7V201H1121.5V192H1190.33V126L1261.86 117.5V166H1287.5V192H1326.64V206H1376.57V161H1440V256V262V295H908.266H859.681H848.885H800.3H72.8773H67.4789H17.5445H6.74792H0V192H17.5445L17.5445 170H67.4789V197H72.8773V214H102.568V143H163.299V232H179.494V187H202.437V177L215.933 145L229.428 177V187H240.225V192H245.623V172H252.371V125L276.664 116.22V95L287.46 99.3478V50H295.558V102.609L307.704 107.5L307.704 125L307.704 138H325.248V192H342.793V174H348.191V164H368.435V139H439.963V161H456.157V143H502.043V108H539.831V62H547.929V108H583.018V135H601.912V148H607.31V179H630.253V149H637.001V117H643.749V92H685.586V117V130H696.382V94H708.529V81H755.764V149V161V179H790.853V192H805.698V245H828.641V232H834.039V206H883.974V235H908.266V256H950.103V229V211L950.103 210L950.103 126H955.501V85H961.642L966.973 45.5H973.046V0Z" fill="#F6871E"/>
<path opacity="0.5" d="M889.364 242H884.07V256.046H889.364V242Z" fill="black"/>
<path opacity="0.5" d="M902.401 242H897.106V256.046H902.401V242Z" fill="black"/>
<path opacity="0.5" d="M863.273 242H857.979V256.046H863.273V242Z" fill="black"/>
<path opacity="0.5" d="M876.31 242H871.016V256.046H876.31V242Z" fill="black"/>
<path opacity="0.5" d="M1068.99 175H1063.69V189.046H1068.99V175Z" fill="black"/>
<path opacity="0.5" d="M1082.02 175H1076.73V189.046H1082.02V175Z" fill="black"/>
<path opacity="0.5" d="M863.273 216H857.979V230.046H863.273V216Z" fill="black"/>
<path opacity="0.5" d="M876.31 216H871.016V230.046H876.31V216Z" fill="black"/>
<path opacity="0.5" d="M17.3361 205H12.0418V219.046H17.3361V205Z" fill="black"/>
<path opacity="0.5" d="M30.3899 205H25.0955V219.046H30.3899V205Z" fill="black"/>
<path opacity="0.5" d="M43.4263 205H38.1319V219.046H43.4263V205Z" fill="black"/>
<path opacity="0.5" d="M139.761 155H134.467V169.046H139.761V155Z" fill="black"/>
<path opacity="0.5" d="M152.798 155H147.503V169.046H152.798V155Z" fill="black"/>
<path opacity="0.5" d="M409.699 149H404.404V163.046H409.699V149Z" fill="black"/>
<path opacity="0.5" d="M422.735 149H417.441V163.046H422.735V149Z" fill="black"/>
<path opacity="0.5" d="M190.939 200H185.645V214.046H190.939V200Z" fill="black"/>
<path opacity="0.5" d="M203.975 200H198.681V214.046H203.975V200Z" fill="black"/>
<path opacity="0.5" d="M217.03 200H211.735V214.046H217.03V200Z" fill="black"/>
<path opacity="0.5" d="M230.066 200H224.772V214.046H230.066V200Z" fill="black"/>
<path opacity="0.5" d="M190.939 219H185.645V233.046H190.939V219Z" fill="black"/>
<path opacity="0.5" d="M203.975 219H198.681V233.046H203.975V219Z" fill="black"/>
<path opacity="0.5" d="M217.03 219H211.735V233.046H217.03V219Z" fill="black"/>
<path opacity="0.5" d="M230.066 219H224.772V233.046H230.066V219Z" fill="black"/>
<path opacity="0.5" d="M278.242 147H272.948V161.046H278.242V147Z" fill="black"/>
<path opacity="0.5" d="M291.279 147H285.984V161.046H291.279V147Z" fill="black"/>
<path opacity="0.5" d="M304.333 147H299.038V161.046H304.333V147Z" fill="black"/>
<path opacity="0.5" d="M317.369 147H312.075V161.046H317.369V147Z" fill="black"/>
<path opacity="0.5" d="M291.287 166H285.993V180.046H291.287V166Z" fill="black"/>
<path opacity="0.5" d="M304.342 166H299.047V180.046H304.342V166Z" fill="black"/>
<path opacity="0.5" d="M317.378 166H312.084V180.046H317.378V166Z" fill="black"/>
<path opacity="0.5" d="M396.653 252H391.359V266.046H396.653V252Z" fill="black"/>
<path opacity="0.5" d="M409.707 252H404.413V266.046H409.707V252Z" fill="black"/>
<path opacity="0.5" d="M422.744 252H417.449V266.046H422.744V252Z" fill="black"/>
<path opacity="0.5" d="M396.653 233H391.359V247.046H396.653V233Z" fill="black"/>
<path opacity="0.5" d="M409.707 233H404.413V247.046H409.707V233Z" fill="black"/>
<path opacity="0.5" d="M422.744 233H417.449V247.046H422.744V233Z" fill="black"/>
<path opacity="0.5" d="M396.653 214H391.359V228.046H396.653V214Z" fill="black"/>
<path opacity="0.5" d="M409.707 214H404.413V228.046H409.707V214Z" fill="black"/>
<path opacity="0.5" d="M422.744 214H417.449V228.046H422.744V214Z" fill="black"/>
<path opacity="0.5" d="M357.517 233H352.223V247.046H357.517V233Z" fill="black"/>
<path opacity="0.5" d="M370.571 233H365.277V247.046H370.571V233Z" fill="black"/>
<path opacity="0.5" d="M383.608 233H378.314V247.046H383.608V233Z" fill="black"/>
<path opacity="0.5" d="M1208.47 220H1203.18V234.046H1208.47V220Z" fill="black"/>
<path opacity="0.5" d="M1221.53 220H1216.23V234.046H1221.53V220Z" fill="black"/>
<path opacity="0.5" d="M1234.56 220H1229.27V234.046H1234.56V220Z" fill="black"/>
<path opacity="0.5" d="M1208.47 201H1203.18V215.046H1208.47V201Z" fill="black"/>
<path opacity="0.5" d="M1221.53 201H1216.23V215.046H1221.53V201Z" fill="black"/>
<path opacity="0.5" d="M1234.56 201H1229.27V215.046H1234.56V201Z" fill="black"/>
<path opacity="0.5" d="M1208.47 182H1203.18V196.046H1208.47V182Z" fill="black"/>
<path opacity="0.5" d="M1221.53 182H1216.23V196.046H1221.53V182Z" fill="black"/>
<path opacity="0.5" d="M1234.56 182H1229.27V196.046H1234.56V182Z" fill="black"/>
<path opacity="0.5" d="M1169.34 201H1164.04V215.046H1169.34V201Z" fill="black"/>
<path opacity="0.5" d="M1182.39 201H1177.1V215.046H1182.39V201Z" fill="black"/>
<path opacity="0.5" d="M1195.43 201H1190.13V215.046H1195.43V201Z" fill="black"/>
<path opacity="0.5" d="M519.078 121H513.784V135.046H519.078V121Z" fill="black"/>
<path opacity="0.5" d="M532.132 121H526.838V135.046H532.132V121Z" fill="black"/>
<path opacity="0.5" d="M545.169 121H539.875V135.046H545.169V121Z" fill="black"/>
<path opacity="0.5" d="M571.26 161H565.965V175.046H571.26V161Z" fill="black"/>
<path opacity="0.5" d="M584.314 161H579.019V175.046H584.314V161Z" fill="black"/>
<path opacity="0.5" d="M597.35 161H592.056V175.046H597.35V161Z" fill="black"/>
<path opacity="0.5" d="M645.517 161H640.223V175.046H645.517V161Z" fill="black"/>
<path opacity="0.5" d="M658.571 161H653.277V175.046H658.571V161Z" fill="black"/>
<path opacity="0.5" d="M671.608 161H666.314V175.046H671.608V161Z" fill="black"/>
<path opacity="0.5" d="M717.768 107H712.474V121.046H717.768V107Z" fill="black"/>
<path opacity="0.5" d="M730.822 107H725.528V121.046H730.822V107Z" fill="black"/>
<path opacity="0.5" d="M743.859 107H738.564V121.046H743.859V107Z" fill="black"/>
<path opacity="0.5" d="M717.768 128H712.474V142.046H717.768V128Z" fill="black"/>
<path opacity="0.5" d="M730.822 128H725.528V142.046H730.822V128Z" fill="black"/>
<path opacity="0.5" d="M743.859 128H738.564V142.046H743.859V128Z" fill="black"/>
<path opacity="0.5" d="M717.768 149H712.474V163.046H717.768V149Z" fill="black"/>
<path opacity="0.5" d="M730.822 149H725.528V163.046H730.822V149Z" fill="black"/>
<path opacity="0.5" d="M743.859 149H738.564V163.046H743.859V149Z" fill="black"/>
<path opacity="0.5" d="M717.768 168H712.474V182.046H717.768V168Z" fill="black"/>
<path opacity="0.5" d="M730.822 168H725.528V182.046H730.822V168Z" fill="black"/>
<path opacity="0.5" d="M743.859 168H738.564V182.046H743.859V168Z" fill="black"/>
<path opacity="0.5" d="M717.768 189H712.474V203.046H717.768V189Z" fill="black"/>
<path opacity="0.5" d="M730.822 189H725.528V203.046H730.822V189Z" fill="black"/>
<path opacity="0.5" d="M743.859 189H738.564V203.046H743.859V189Z" fill="black"/>
<path opacity="0.5" d="M966.632 141H961.338V155.046H966.632V141Z" fill="black"/>
<path opacity="0.5" d="M979.686 141H974.392V155.046H979.686V141Z" fill="black"/>
<path opacity="0.5" d="M992.723 141H987.429V155.046H992.723V141Z" fill="black"/>
<path opacity="0.5" d="M973.657 93H968.362V107.046H973.657V93Z" fill="black"/>
<path opacity="0.5" d="M986.693 93H981.399V107.046H986.693V93Z" fill="black"/>
<path opacity="0.5" d="M979.678 65H974.383V79.0462H979.678V65Z" fill="black"/>
<path opacity="0.5" d="M973.657 114H968.362V128.046H973.657V114Z" fill="black"/>
<path opacity="0.5" d="M986.693 114H981.399V128.046H986.693V114Z" fill="black"/>
<path opacity="0.5" d="M966.632 162H961.338V176.046H966.632V162Z" fill="black"/>
<path opacity="0.5" d="M979.686 162H974.392V176.046H979.686V162Z" fill="black"/>
<path opacity="0.5" d="M992.723 162H987.429V176.046H992.723V162Z" fill="black"/>
<path opacity="0.5" d="M966.632 183H961.338V197.046H966.632V183Z" fill="black"/>
<path opacity="0.5" d="M979.686 183H974.392V197.046H979.686V183Z" fill="black"/>
<path opacity="0.5" d="M992.723 183H987.429V197.046H992.723V183Z" fill="black"/>
<path opacity="0.5" d="M966.632 202H961.338V216.046H966.632V202Z" fill="black"/>
<path opacity="0.5" d="M979.686 202H974.392V216.046H979.686V202Z" fill="black"/>
<path opacity="0.5" d="M992.723 202H987.429V216.046H992.723V202Z" fill="black"/>
<path opacity="0.5" d="M966.632 223H961.338V237.046H966.632V223Z" fill="black"/>
<path opacity="0.5" d="M979.686 223H974.392V237.046H979.686V223Z" fill="black"/>
<path opacity="0.5" d="M992.723 223H987.429V237.046H992.723V223Z" fill="black"/>
<path opacity="0.5" d="M56.4622 205H51.1679V219.046H56.4622V205Z" fill="black"/>
<path opacity="0.5" d="M17.3361 228.405H12.0418V242.451H17.3361V228.405Z" fill="black"/>
<path opacity="0.5" d="M30.3899 228.405H25.0955V242.451H30.3899V228.405Z" fill="black"/>
<path opacity="0.5" d="M43.4263 228.405H38.1319V242.451H43.4263V228.405Z" fill="black"/>
<path opacity="0.5" d="M56.4622 228.405H51.1679V242.451H56.4622V228.405Z" fill="black"/>
<path opacity="0.5" d="M17.3361 251.809H12.0418V265.856H17.3361V251.809Z" fill="black"/>
<path opacity="0.5" d="M30.3899 251.809H25.0955V265.856H30.3899V251.809Z" fill="black"/>
<path opacity="0.5" d="M1419.2 173H1413.91V187.046H1419.2V173Z" fill="black"/>
<path opacity="0.5" d="M1432.26 173H1426.96V187.046H1432.26V173Z" fill="black"/>
<path opacity="0.5" d="M1419.2 196.405H1413.91V210.451H1419.2V196.405Z" fill="black"/>
<path opacity="0.5" d="M1432.26 196.405H1426.96V210.451H1432.26V196.405Z" fill="black"/>
<path opacity="0.5" d="M1419.2 219.809H1413.91V233.856H1419.2V219.809Z" fill="black"/>
<path opacity="0.5" d="M1432.26 219.809H1426.96V233.856H1432.26V219.809Z" fill="black"/>
<path opacity="0.5" d="M1304.81 258H1299.51V272.046H1304.81V258Z" fill="black"/>
<path opacity="0.5" d="M1317.86 258H1312.57V272.046H1317.86V258Z" fill="black"/>
<path opacity="0.5" d="M1304.81 241H1299.51V255.046H1304.81V241Z" fill="black"/>
<path opacity="0.5" d="M1317.86 241H1312.57V255.046H1317.86V241Z" fill="black"/>
<path opacity="0.5" d="M1393.11 197H1387.82V211.046H1393.11V197Z" fill="black"/>
<path opacity="0.5" d="M1406.17 197H1400.87V211.046H1406.17V197Z" fill="black"/>
<path opacity="0.5" d="M1393.11 220.405H1387.82V234.451H1393.11V220.405Z" fill="black"/>
<path opacity="0.5" d="M1406.17 220.405H1400.87V234.451H1406.17V220.405Z" fill="black"/>
<path opacity="0.5" d="M1393.11 243.809H1387.82V257.856H1393.11V243.809Z" fill="black"/>
<path opacity="0.5" d="M1406.17 243.809H1400.87V257.856H1406.17V243.809Z" fill="black"/>
</svg>
