<svg width="1440" height="1024" viewBox="0 0 1440 1024" fill="none" xmlns="http://www.w3.org/2000/svg">
<path fill-rule="evenodd" clip-rule="evenodd" d="M51.2666 388.908L51.2666 471.505H0V472.505H51.2666L51.2666 527.025L51.2666 550.495H0V551.495H51.2666L51.2666 634.092H0V635.092H51.2666L51.2666 717.689H0V718.689H51.2666L51.2666 801.286H0V802.286H51.2666L51.2666 884.883H0V885.883H51.2666L51.2666 968.48H0V969.48H51.2666L51.2666 1024H52.2666L52.2666 969.48H129.875V1024H130.875V969.48H208.484V1024H209.484V969.48H287.093V1024H288.093V969.48H365.702V1024H366.702V969.48H444.311V1024H445.311V969.48H472.755H495.577H524.021V1024H525.021V969.48H602.63V1024H603.63V969.48H681.239V1024H682.239V969.48H759.848V1024H760.848V969.48H838.457V1024H839.457V969.48H917.065V1024H918.065V969.48H944.423H968.332H995.689V1024H996.689V969.48H1074.3V1024H1075.3V969.48H1152.91V1024H1153.91V969.48H1231.52V1024H1232.52V969.48H1310.12V1024H1311.12V969.48H1388.73V1024H1389.73V969.48H1440V968.48H1389.73V885.883H1440V884.883H1389.73V802.286H1440V801.286H1389.73V718.689H1440V717.689H1389.73V635.092H1440V634.092H1389.73L1389.73 551.495H1440V550.495H1389.73L1389.73 527.025L1389.73 496.975L1389.73 472.505H1440V471.505H1389.73V388.908H1440V387.908H1389.73V305.311H1440V304.311H1389.73V221.714H1440V220.714H1389.73V138.117H1440V137.117H1389.73L1389.73 54.5196H1440V53.5196H1389.73V0H1388.73V53.5196H1311.12V0H1310.12V53.5196H1232.52V0H1231.52V53.5196H1153.91V0H1152.91V53.5196H1075.3V0H1074.3V53.5196H996.689V0H995.689V53.5196H968.332H944.423H918.065V0H917.065V53.5196H839.457V0H838.457V53.5196H760.848V0H759.848V53.5196H682.239V0H681.239V53.5196H603.63V0H602.63V53.5196H525.021V0H524.021V53.5196H495.577H472.755H445.311V0H444.311V53.5196H366.702V0H365.702V53.5196H288.093V0H287.093V53.5196H209.484V0H208.484V53.5196H130.875V0H129.875V53.5196H52.2666V0H51.2666V53.5196H0V54.5196H51.2666L51.2666 137.117H0V138.117H51.2666L51.2666 220.714H0V221.714H51.2666L51.2666 304.311H0V305.311H51.2666L51.2666 387.908H0V388.908H51.2666ZM968.332 968.48H944.423H918.065V885.883H944.423H968.332H995.689V968.48H968.332ZM968.332 884.883H944.423H918.065V802.286H944.423H968.332H995.689V884.883H968.332ZM968.332 801.286H944.423H918.065V718.689H944.423H968.332H995.689V801.286H968.332ZM968.332 717.689H944.423H918.065V635.092H944.423H968.332H995.689V717.689H968.332ZM968.332 634.092H944.423H918.065V551.495H944.423H968.332H995.689V634.092H968.332ZM968.332 550.495H944.423H918.065V527.025V496.975V472.505H944.423H968.332H995.689V496.975V527.025V550.495H968.332ZM996.689 527.025V496.975V472.505H1074.3V496.975V527.025V550.495H996.689V527.025ZM1075.3 527.025V496.975V472.505H1152.91V496.975V527.025V550.495H1075.3V527.025ZM1153.91 527.025V496.975V472.505H1231.52L1231.52 496.975L1231.52 527.025L1231.52 550.495H1153.91V527.025ZM1232.52 527.025L1232.52 496.975L1232.52 472.505H1310.12V496.975V527.025V550.495H1232.52L1232.52 527.025ZM1311.12 527.025V496.975V472.505H1388.73L1388.73 496.975L1388.73 527.025L1388.73 550.495H1311.12V527.025ZM944.423 54.5196H918.065V137.117H944.423H968.332H995.689V54.5196H968.332H944.423ZM944.423 138.117H918.065V220.714H944.423H968.332H995.689V138.117H968.332H944.423ZM944.423 221.714H918.065V304.311H944.423H968.332H995.689V221.714H968.332H944.423ZM944.423 305.311H918.065V387.908H944.423H968.332H995.689V305.311H968.332H944.423ZM944.423 388.908H918.065V471.505H944.423H968.332H995.689V388.908H968.332H944.423ZM495.577 968.48H472.755H445.311V885.883H472.755H495.577H524.021V968.48H495.577ZM495.577 884.883H472.755H445.311V802.286H472.755H495.577H524.021V884.883H495.577ZM495.577 801.286H472.755H445.311V718.689H472.755H495.577H524.021V801.286H495.577ZM495.577 717.689H472.755H445.311V635.092H472.755H495.577H524.021V717.689H495.577ZM495.577 634.092H472.755H445.311L445.311 551.495H472.755H495.577H524.021V634.092H495.577ZM495.577 550.495H472.755H445.311L445.311 527.025L445.311 496.975L445.311 472.505H472.755H495.577H524.021V496.975V527.025V550.495H495.577ZM525.021 527.025V496.975V472.505H602.63V496.975V527.025V550.495H525.021V527.025ZM603.63 527.025V496.975V472.505H681.239L681.239 496.975L681.239 527.025L681.239 550.495H603.63V527.025ZM682.239 527.025L682.239 496.975L682.239 472.505H759.848V496.975V527.025V550.495H682.239L682.239 527.025ZM760.848 527.025V496.975V472.505H838.457L838.457 496.975L838.457 527.025L838.457 550.495H760.848V527.025ZM839.457 527.025L839.457 496.975L839.457 472.505H917.065V496.975V527.025V550.495H839.457L839.457 527.025ZM444.311 496.975L444.311 472.505H366.702L366.702 496.975L366.702 527.025L366.702 550.495H444.311L444.311 527.025L444.311 496.975ZM365.702 496.975L365.702 472.505H288.093L288.093 496.975L288.093 527.025L288.093 550.495H365.702L365.702 527.025L365.702 496.975ZM287.093 496.975L287.093 472.505H209.484L209.484 496.975L209.484 527.025L209.484 550.495H287.093L287.093 527.025L287.093 496.975ZM208.484 496.975L208.484 472.505H130.875L130.875 496.975L130.875 527.025L130.875 550.495H208.484L208.484 527.025L208.484 496.975ZM129.875 496.975L129.875 472.505H52.2666L52.2666 496.975V550.495H129.875L129.875 527.025L129.875 496.975ZM495.577 471.505H472.755H445.311V388.908H472.755H495.577H524.021V471.505H495.577ZM495.577 387.908H472.755H445.311V305.311H472.755H495.577H524.021V387.908H495.577ZM495.577 304.311H472.755H445.311V221.714H472.755H495.577H524.021V304.311H495.577ZM495.577 220.714H472.755H445.311V138.117H472.755H495.577H524.021V220.714H495.577ZM495.577 137.117H472.755H445.311L445.311 54.5196H472.755H495.577H524.021V137.117H495.577ZM52.2666 54.5196L52.2666 137.117H129.875L129.875 54.5196H52.2666ZM130.875 54.5196L130.875 137.117H208.484L208.484 54.5196H130.875ZM209.484 54.5196L209.484 137.117H287.093L287.093 54.5196H209.484ZM288.093 54.5196L288.093 137.117H365.702L365.702 54.5196H288.093ZM366.702 54.5196L366.702 137.117H444.311L444.311 54.5196H366.702ZM366.702 138.117H444.311V220.714H366.702V138.117ZM288.093 138.117H365.702V220.714H288.093V138.117ZM209.484 138.117H287.093V220.714H209.484V138.117ZM130.875 138.117H208.484V220.714H130.875V138.117ZM52.2666 138.117H129.875V220.714H52.2666L52.2666 138.117ZM52.2666 221.714L52.2666 304.311H129.875V221.714H52.2666ZM130.875 221.714V304.311H208.484V221.714H130.875ZM209.484 221.714V304.311H287.093V221.714H209.484ZM288.093 221.714V304.311H365.702V221.714H288.093ZM366.702 221.714V304.311H444.311V221.714H366.702ZM366.702 305.311H444.311V387.908H366.702V305.311ZM288.093 305.311H365.702V387.908H288.093V305.311ZM209.484 305.311H287.093V387.908H209.484V305.311ZM130.875 305.311H208.484V387.908H130.875V305.311ZM52.2666 305.311H129.875V387.908H52.2666L52.2666 305.311ZM52.2666 388.908L52.2666 471.505H129.875V388.908H52.2666ZM130.875 388.908V471.505H208.484V388.908H130.875ZM209.484 388.908V471.505H287.093V388.908H209.484ZM288.093 388.908V471.505H365.702V388.908H288.093ZM366.702 388.908V471.505H444.311V388.908H366.702ZM525.021 54.5196V137.117H602.63V54.5196H525.021ZM603.63 54.5196V137.117H681.239L681.239 54.5196H603.63ZM682.239 54.5196L682.239 137.117H759.848V54.5196H682.239ZM760.848 54.5196V137.117H838.457L838.457 54.5196H760.848ZM839.457 54.5196L839.457 137.117H917.065V54.5196H839.457ZM839.457 138.117H917.065V220.714H839.457V138.117ZM760.848 138.117H838.457V220.714H760.848V138.117ZM682.239 138.117H759.848V220.714H682.239V138.117ZM603.63 138.117H681.239V220.714H603.63V138.117ZM525.021 138.117H602.63V220.714H525.021V138.117ZM525.021 221.714V304.311H602.63V221.714H525.021ZM603.63 221.714V304.311H681.239V221.714H603.63ZM682.239 221.714V304.311H759.848V221.714H682.239ZM760.848 221.714V304.311H838.457V221.714H760.848ZM839.457 221.714V304.311H917.065V221.714H839.457ZM839.457 305.311H917.065V387.908H839.457V305.311ZM760.848 305.311H838.457V387.908H760.848V305.311ZM682.239 305.311H759.848V387.908H682.239V305.311ZM603.63 305.311H681.239V387.908H603.63V305.311ZM525.021 305.311H602.63V387.908H525.021V305.311ZM525.021 388.908V471.505H602.63V388.908H525.021ZM603.63 388.908V471.505H681.239V388.908H603.63ZM682.239 388.908V471.505H759.848V388.908H682.239ZM760.848 388.908V471.505H838.457V388.908H760.848ZM839.457 388.908V471.505H917.065V388.908H839.457ZM52.2666 634.092L52.2666 551.495H129.875L129.875 634.092H52.2666ZM130.875 634.092L130.875 551.495H208.484L208.484 634.092H130.875ZM209.484 634.092L209.484 551.495H287.093L287.093 634.092H209.484ZM288.093 634.092L288.093 551.495H365.702L365.702 634.092H288.093ZM366.702 634.092L366.702 551.495H444.311L444.311 634.092H366.702ZM444.311 635.092H366.702V717.689H444.311V635.092ZM365.702 635.092H288.093V717.689H365.702V635.092ZM287.093 635.092H209.484V717.689H287.093V635.092ZM208.484 635.092H130.875V717.689H208.484V635.092ZM129.875 635.092H52.2666L52.2666 717.689H129.875V635.092ZM52.2666 801.286L52.2666 718.689H129.875V801.286H52.2666ZM130.875 801.286V718.689H208.484V801.286H130.875ZM209.484 801.286V718.689H287.093V801.286H209.484ZM288.093 801.286V718.689H365.702V801.286H288.093ZM366.702 801.286V718.689H444.311V801.286H366.702ZM444.311 802.286H366.702V884.883H444.311V802.286ZM365.702 802.286H288.093V884.883H365.702V802.286ZM287.093 802.286H209.484V884.883H287.093V802.286ZM208.484 802.286H130.875V884.883H208.484V802.286ZM129.875 802.286H52.2666L52.2666 884.883H129.875V802.286ZM52.2666 968.48L52.2666 885.883H129.875V968.48H52.2666ZM130.875 968.48V885.883H208.484V968.48H130.875ZM209.484 968.48V885.883H287.093V968.48H209.484ZM288.093 968.48V885.883H365.702V968.48H288.093ZM366.702 968.48V885.883H444.311V968.48H366.702ZM525.021 551.495V634.092H602.63V551.495H525.021ZM603.63 551.495V634.092H681.239L681.239 551.495H603.63ZM682.239 551.495L682.239 634.092H759.848V551.495H682.239ZM760.848 551.495V634.092H838.457L838.457 551.495H760.848ZM839.457 551.495L839.457 634.092H917.065V551.495H839.457ZM839.457 635.092H917.065V717.689H839.457V635.092ZM760.848 635.092H838.457V717.689H760.848V635.092ZM682.239 635.092H759.848V717.689H682.239V635.092ZM603.63 635.092H681.239V717.689H603.63V635.092ZM525.021 635.092H602.63V717.689H525.021V635.092ZM525.021 718.689V801.286H602.63V718.689H525.021ZM603.63 718.689V801.286H681.239V718.689H603.63ZM682.239 718.689V801.286H759.848V718.689H682.239ZM760.848 718.689V801.286H838.457V718.689H760.848ZM839.457 718.689V801.286H917.065V718.689H839.457ZM839.457 802.286H917.065V884.883H839.457V802.286ZM760.848 802.286H838.457V884.883H760.848V802.286ZM682.239 802.286H759.848V884.883H682.239V802.286ZM603.63 802.286H681.239V884.883H603.63V802.286ZM525.021 802.286H602.63V884.883H525.021V802.286ZM525.021 885.883V968.48H602.63V885.883H525.021ZM603.63 885.883V968.48H681.239V885.883H603.63ZM682.239 885.883V968.48H759.848V885.883H682.239ZM760.848 885.883V968.48H838.457V885.883H760.848ZM839.457 885.883V968.48H917.065V885.883H839.457ZM996.689 137.117V54.5196H1074.3V137.117H996.689ZM1075.3 137.117V54.5196H1152.91V137.117H1075.3ZM1153.91 137.117V54.5196H1231.52L1231.52 137.117H1153.91ZM1232.52 137.117L1232.52 54.5196H1310.12V137.117H1232.52ZM1311.12 137.117V54.5196H1388.73L1388.73 137.117H1311.12ZM1388.73 138.117H1311.12V220.714H1388.73V138.117ZM1310.12 138.117H1232.52V220.714H1310.12V138.117ZM1231.52 138.117H1153.91V220.714H1231.52V138.117ZM1152.91 138.117H1075.3V220.714H1152.91V138.117ZM1074.3 138.117H996.689V220.714H1074.3V138.117ZM996.689 304.311V221.714H1074.3V304.311H996.689ZM1075.3 304.311V221.714H1152.91V304.311H1075.3ZM1153.91 304.311V221.714H1231.52V304.311H1153.91ZM1232.52 304.311V221.714H1310.12V304.311H1232.52ZM1311.12 304.311V221.714H1388.73V304.311H1311.12ZM1388.73 305.311H1311.12V387.908H1388.73V305.311ZM1310.12 305.311H1232.52V387.908H1310.12V305.311ZM1231.52 305.311H1153.91V387.908H1231.52V305.311ZM1152.91 305.311H1075.3V387.908H1152.91V305.311ZM1074.3 305.311H996.689V387.908H1074.3V305.311ZM996.689 471.505V388.908H1074.3V471.505H996.689ZM1075.3 471.505V388.908H1152.91V471.505H1075.3ZM1153.91 471.505V388.908H1231.52V471.505H1153.91ZM1232.52 471.505V388.908H1310.12V471.505H1232.52ZM1311.12 471.505V388.908H1388.73V471.505H1311.12ZM996.689 551.495V634.092H1074.3V551.495H996.689ZM1075.3 551.495V634.092H1152.91V551.495H1075.3ZM1153.91 551.495V634.092H1231.52L1231.52 551.495H1153.91ZM1232.52 551.495L1232.52 634.092H1310.12V551.495H1232.52ZM1311.12 551.495V634.092H1388.73L1388.73 551.495H1311.12ZM1311.12 635.092H1388.73V717.689H1311.12V635.092ZM1232.52 635.092H1310.12V717.689H1232.52V635.092ZM1153.91 635.092H1231.52V717.689H1153.91V635.092ZM1075.3 635.092H1152.91V717.689H1075.3V635.092ZM996.689 635.092H1074.3V717.689H996.689V635.092ZM996.689 718.689V801.286H1074.3V718.689H996.689ZM1075.3 718.689V801.286H1152.91V718.689H1075.3ZM1153.91 718.689V801.286H1231.52V718.689H1153.91ZM1232.52 718.689V801.286H1310.12V718.689H1232.52ZM1311.12 718.689V801.286H1388.73V718.689H1311.12ZM1311.12 802.286H1388.73V884.883H1311.12V802.286ZM1232.52 802.286H1310.12V884.883H1232.52V802.286ZM1153.91 802.286H1231.52V884.883H1153.91V802.286ZM1075.3 802.286H1152.91V884.883H1075.3V802.286ZM996.689 802.286H1074.3V884.883H996.689V802.286ZM996.689 885.883V968.48H1074.3V885.883H996.689ZM1075.3 885.883V968.48H1152.91V885.883H1075.3ZM1153.91 885.883V968.48H1231.52V885.883H1153.91ZM1232.52 885.883V968.48H1310.12V885.883H1232.52ZM1311.12 885.883V968.48H1388.73V885.883H1311.12Z" fill="url(#paint0_radial_133_170)"/>
<defs>
<radialGradient id="paint0_radial_133_170" cx="0" cy="0" r="1" gradientUnits="userSpaceOnUse" gradientTransform="translate(721.087 526.447) rotate(90) scale(762.221 1062.34)">
<stop stop-color="#D9D9D9" stop-opacity="0.6"/>
<stop offset="0.685" stop-color="#737373" stop-opacity="0"/>
</radialGradient>
</defs>
</svg>
